<svg width="34" height="38" viewBox="0 0 34 38" fill="none" xmlns="http://www.w3.org/2000/svg">
<path d="M32 25.8182V17.4959C32 10.3482 32 6.77435 29.8033 4.55384C27.6066 2.33334 24.0711 2.33334 17 2.33334C9.92893 2.33334 6.3934 2.33334 4.1967 4.55384C2 6.77435 2 10.3482 2 17.4959V25.8182C2 30.9791 2 33.5596 3.22351 34.6872C3.80702 35.2249 4.54358 35.5628 5.32819 35.6526C6.97337 35.8408 8.89455 34.1416 12.7369 30.7431C14.4354 29.2408 15.2846 28.4897 16.2671 28.2918C16.751 28.1943 17.249 28.1943 17.7329 28.2918C18.7154 28.4897 19.5646 29.2408 21.2631 30.7431C25.1054 34.1416 27.0266 35.8408 28.6718 35.6526C29.4564 35.5628 30.193 35.2249 30.7765 34.6872C32 33.5596 32 30.9791 32 25.8182Z" stroke="#7B6EF6" stroke-width="3"/>
</svg>
